# xmcd
#
# Track frame offsets: 
#        150
#        12861
#        22794
#        31567
#        44341
#        55801
#        68850
#        80486
#        95200
#        109332
#        120576
#        134065
#        145693
#        156701
#        167814
#        179981
#        190537
#        199995
#        211870
#        222620
#        232749
#        245017
#        259207
#        273684
#        286802
#
# Disc length: 3970 seconds
#
# Revision: 2
# Processed by: cddbd v1.5.2PL0 Copyright (c) Steve Scherf et al.
# Submitted via: ExactAudioCopyFreeDBPlugin 1.0
#
DISCID=7c0f8019
DTITLE=Various Artist - The Best of Burlesque [Demon Music]
DYEAR=2009
DGENRE=Burlesque
TTITLE0=Perez Prado and His Orchestra - Mambo No. 5
TTITLE1=Bull Moose Jackson - Big 10 Inch Record (Of the Blues)
TTITLE2=David Rose and His Orchestra - The Stripper
TTITLE3=Amos Milburn - One Scotch, One Bourbon, One Beer
TTITLE4=Jimmy Liggins and His Drops of Joy - Drunk
TTITLE5=Fluffy Hunter with The Jesse Powell Orchestra - The Walkin' Bl
TTITLE5=ues
TTITLE6=The Swallows - It Ain't The Meat
TTITLE7=Clarence Garlow - The New Bon Ton Roulay
TTITLE8=Dizzy Gillespie - Manteca
TTITLE9=Dave Bartholemew - The Monkey
TTITLE10=T-Bone Walker - T-Bone Shuffle
TTITLE11=Bob Landers with Willie Joe and His Unitar - Cherokee Dance
TTITLE12=Sugar Boy Crawford and His Cane Cutters - Jock-O-Mo
TTITLE13=Jimmy McCracklin - I Want to Make Love to You
TTITLE14=Wynonie Harris and His All Stars - Good Mornin' Judge
TTITLE15=Roy Montrell - That Mellow Saxophone
TTITLE16=Joe Clay - Sixteen Chicks
TTITLE17=Willis Jackson - Gator's Groove
TTITLE18=Etta James - Good Rockin' Daddy
TTITLE19=Julia Lee and Her Boyfriends - My Man Stands Out
TTITLE20=Jack McVea and His All Stars - Bartender Boogie
TTITLE21=Dinah Washington - Long John Blues
TTITLE22=Big Joe Turner - My Gal's a Jockey
TTITLE23=Julia Lee and Her Boyfriends - Snatch It and Grab It
TTITLE24=Screamin' Jay Hawkins - I Put a Spell on You
EXTD=YEAR: 2009
EXTT0=
EXTT1=
EXTT2=
EXTT3=
EXTT4=
EXTT5=
EXTT6=
EXTT7=
EXTT8=
EXTT9=
EXTT10=
EXTT11=
EXTT12=
EXTT13=
EXTT14=
EXTT15=
EXTT16=
EXTT17=
EXTT18=
EXTT19=
EXTT20=
EXTT21=
EXTT22=
EXTT23=
EXTT24=
PLAYORDER=
